<svg xmlns="http://www.w3.org/2000/svg" viewBox="0 0 800 800" width="800" height="800" role="img" aria-label="Stainless Steel Vacuum Flask">
  <defs>
    <radialGradient id="bg" cx="50%" cy="38%" r="75%">
      <stop offset="0" stop-color="#D9DEDE"/>
      <stop offset=".55" stop-color="#D9DEDE"/>
      <stop offset="1" stop-color="#6F7B80" stop-opacity="0.55"/>
    </radialGradient>
    <linearGradient id="body" x1="0" y1="0" x2="1" y2="1"><stop offset="0" stop-color="#6F7B80"/><stop offset="1" stop-color="#47535A"/></linearGradient>
    <linearGradient id="gold" x1="0" y1="0" x2="1" y2="1"><stop offset="0" stop-color="#E8CF8D"/><stop offset="1" stop-color="#A9843A"/></linearGradient>
    <linearGradient id="ink" x1="0" y1="0" x2="0" y2="1"><stop offset="0" stop-color="#22292E"/><stop offset="1" stop-color="#22292E"/></linearGradient>
    <radialGradient id="shadow"><stop offset="0" stop-color="#22292E" stop-opacity=".35"/><stop offset="1" stop-color="#22292E" stop-opacity="0"/></radialGradient>
  </defs>
  <rect width="800" height="800" fill="url(#bg)"/>
  <circle cx="640" cy="170" r="70" fill="#fff" opacity=".35"/><circle cx="160" cy="640" r="110" fill="#fff" opacity=".22"/>
       <text x="60" y="730" font-family="Georgia, serif" font-size="22" font-style="italic" fill="#22292E" opacity=".7">1 L</text>
  <ellipse cx="430" cy="660" rx="240" ry="34" fill="url(#shadow)"/>
  <g transform="translate(430 420) rotate(-8) scale(.95)"><rect x="-55" y="-235" width="110" height="60" rx="12" fill="#2B2B2B"/>
        <rect x="-75" y="-180" width="150" height="400" rx="40" fill="url(#body)"/><rect x="-55" y="-160" width="14" height="360" rx="7" fill="#fff" opacity=".28"/>
    <rect x="-60" y="-20" width="120" height="130" rx="10" fill="#FFFDF8" opacity=".95"/>
    <text x="0" y="49" text-anchor="middle" font-family="Georgia, 'Times New Roman', serif" font-size="40" font-weight="700" fill="url(#ink)">T</text>
    <text x="0" y="75" text-anchor="middle" font-family="Helvetica, Arial, sans-serif" font-size="8" letter-spacing="1.5" fill="url(#ink)" opacity=".75">THERMOLUX</text>
    <line x1="-38" x2="38" y1="-2" y2="-2" stroke="url(#ink)" stroke-width="1" opacity=".3"/></g>
</svg>
