<svg xmlns="http://www.w3.org/2000/svg" viewBox="0 0 800 800" width="800" height="800" role="img" aria-label="Whitening Herbal Toothpaste">
  <defs>
    <radialGradient id="bg" cx="50%" cy="38%" r="75%">
      <stop offset="0" stop-color="#FFFFFF"/>
      <stop offset=".55" stop-color="#EDF4F7"/>
      <stop offset="1" stop-color="#D2E4EC" stop-opacity="1"/>
    </radialGradient>
    <linearGradient id="body" x1="0" y1="0" x2="1" y2="1"><stop offset="0" stop-color="#7FB2C8"/><stop offset="1" stop-color="#4B88A3"/></linearGradient>
    <linearGradient id="gold" x1="0" y1="0" x2="1" y2="1"><stop offset="0" stop-color="#E8CF8D"/><stop offset="1" stop-color="#A9843A"/></linearGradient>
    <linearGradient id="ink" x1="0" y1="0" x2="0" y2="1"><stop offset="0" stop-color="#22546B"/><stop offset="1" stop-color="#22546B"/></linearGradient>
    <radialGradient id="shadow"><stop offset="0" stop-color="#22546B" stop-opacity=".35"/><stop offset="1" stop-color="#22546B" stop-opacity="0"/></radialGradient>
  </defs>
  <rect width="800" height="800" fill="url(#bg)"/>
  <circle cx="140" cy="150" r="5" fill="#22546B" opacity=".25"/><circle cx="670" cy="620" r="7" fill="#22546B" opacity=".18"/>
  <ellipse cx="400" cy="650" rx="240" ry="34" fill="url(#shadow)"/>
  <g transform="translate(400 410)"><path d="M-90,-200 L90,-200 L70,150 L-70,150 Z" fill="url(#body)"/>
        <rect x="-95" y="-215" width="190" height="22" rx="4" fill="url(#body)" opacity=".85"/>
        <rect x="-55" y="150" width="110" height="65" rx="10" fill="#FFFDF8"/><rect x="-70" y="-180" width="14" height="300" rx="7" fill="#fff" opacity=".28"/>
    <rect x="-70" y="-110" width="140" height="130" rx="10" fill="#FFFDF8" opacity=".95"/>
    <text x="0" y="-41" text-anchor="middle" font-family="Georgia, 'Times New Roman', serif" font-size="46" font-weight="700" fill="url(#ink)">S</text>
    <text x="0" y="-15" text-anchor="middle" font-family="Helvetica, Arial, sans-serif" font-size="9.333333333333334" letter-spacing="1.5" fill="url(#ink)" opacity=".75">SMILEVEDA</text>
    <line x1="-48" x2="48" y1="-92" y2="-92" stroke="url(#ink)" stroke-width="1" opacity=".3"/></g>
</svg>
