<svg xmlns="http://www.w3.org/2000/svg" viewBox="0 0 800 800" width="800" height="800" role="img" aria-label="Women's Medium-Support Sports Bra">
  <defs>
    <radialGradient id="bg" cx="50%" cy="38%" r="75%">
      <stop offset="0" stop-color="#FFFFFF"/>
      <stop offset=".6" stop-color="#EEF0F6"/>
      <stop offset="1" stop-color="#D8DCEA"/>
    </radialGradient>
    <linearGradient id="b" x1="0" y1="0" x2="1" y2="1"><stop offset="0" stop-color="#3a3a3a"/><stop offset="1" stop-color="#1b1b1b"/></linearGradient>
    <linearGradient id="d" x1="0" y1="0" x2="1" y2="1"><stop offset="0" stop-color="#111111"/><stop offset="1" stop-color="#0c0c0c"/></linearGradient>
    <linearGradient id="gold" x1="0" y1="0" x2="1" y2="1"><stop offset="0" stop-color="#E8CF8D"/><stop offset="1" stop-color="#A9843A"/></linearGradient>
    <linearGradient id="ink" x1="0" y1="0" x2="0" y2="1"><stop offset="0" stop-color="#232A4A"/><stop offset="1" stop-color="#232A4A"/></linearGradient>
    <radialGradient id="shadow"><stop offset="0" stop-color="#232A4A" stop-opacity=".3"/><stop offset="1" stop-color="#232A4A" stop-opacity="0"/></radialGradient>
  </defs>
  <rect width="800" height="800" fill="url(#bg)"/>
  <circle cx="140" cy="150" r="5" fill="#232A4A" opacity=".2"/><circle cx="670" cy="620" r="7" fill="#232A4A" opacity=".15"/>
  <ellipse cx="400" cy="640" rx="260" ry="34" fill="url(#shadow)"/>
  <g transform="translate(400 395) scale(.95)"><g transform="translate(0 20)">
        <path d="M-100,-120 L-60,-180 M100,-120 L60,-180" stroke="url(#b)" stroke-width="22" stroke-linecap="round"/>
        <path d="M-150,-120 L-100,-120 C-80,-40 80,-40 100,-120 L150,-120 L160,80 L-160,80 Z" fill="url(#b)"/>
        <path d="M-160,40 L160,40 L160,90 L-160,90 Z" fill="url(#d)" opacity=".55"/>
        <rect x="-23" y="50" width="46" height="24" rx="4" fill="#FFFDF8" opacity=".92"/><text x="0" y="67" text-anchor="middle" font-family="Georgia, serif" font-size="14" font-weight="700" fill="url(#ink)">R</text>
      </g></g>
</svg>
