<svg xmlns="http://www.w3.org/2000/svg" viewBox="0 0 800 800" width="800" height="800" role="img" aria-label="Boss Bottled Eau de Parfum">
  <defs>
    <radialGradient id="bg" cx="50%" cy="38%" r="75%">
      <stop offset="0" stop-color="#F6F0E3"/>
      <stop offset=".6" stop-color="#E8DABA"/>
      <stop offset="1" stop-color="#d5c9ab"/>
    </radialGradient>
    <linearGradient id="b" x1="0" y1="0" x2="1" y2="1"><stop offset="0" stop-color="#d9b870"/><stop offset="1" stop-color="#bb9951"/></linearGradient>
    <linearGradient id="d" x1="0" y1="0" x2="1" y2="1"><stop offset="0" stop-color="#756033"/><stop offset="1" stop-color="#554625"/></linearGradient>
    <linearGradient id="gold" x1="0" y1="0" x2="1" y2="1"><stop offset="0" stop-color="#E8CF8D"/><stop offset="1" stop-color="#A9843A"/></linearGradient>
    <linearGradient id="ink" x1="0" y1="0" x2="0" y2="1"><stop offset="0" stop-color="#5E4517"/><stop offset="1" stop-color="#5E4517"/></linearGradient>
    <radialGradient id="shadow"><stop offset="0" stop-color="#5E4517" stop-opacity=".3"/><stop offset="1" stop-color="#5E4517" stop-opacity="0"/></radialGradient>
  </defs>
  <rect width="800" height="800" fill="url(#bg)"/>
  <circle cx="650" cy="160" r="70" fill="#fff" opacity=".35"/><circle cx="150" cy="650" r="110" fill="#fff" opacity=".22"/>
  <ellipse cx="400" cy="640" rx="260" ry="34" fill="url(#shadow)"/>
  <g transform="translate(410 400) rotate(-6) scale(.92)"><rect x="-45" y="-215" width="90" height="70" rx="8" fill="url(#gold)"/>
        <rect x="-18" y="-150" width="36" height="30" fill="#BFA25A"/>
        <path d="M-130,-120 L130,-120 L150,-90 L150,190 Q150,210 130,210 L-130,210 Q-150,210 -150,190 L-150,-90 Z" fill="url(#b)" opacity=".92"/>
        <path d="M-110,-95 L110,-95 L125,-75 L125,180 L-125,180 L-125,-75 Z" fill="#fff" opacity=".12"/>
    <rect x="-95" y="-10" width="190" height="130" rx="10" fill="#FFFDF8" opacity=".95"/>
    <text x="0" y="59" text-anchor="middle" font-family="Georgia, serif" font-size="46" font-weight="700" fill="url(#ink)">HB</text>
    <text x="0" y="85" text-anchor="middle" font-family="Helvetica, Arial, sans-serif" font-size="11" letter-spacing="1.5" fill="url(#ink)" opacity=".75">HUGO BOSS</text></g>
</svg>
