<svg xmlns="http://www.w3.org/2000/svg" viewBox="0 0 800 800" width="800" height="800" role="img" aria-label="Men's Dri-Fit Training T-Shirt">
  <defs>
    <radialGradient id="bg" cx="50%" cy="38%" r="75%">
      <stop offset="0" stop-color="#EEF0F6"/>
      <stop offset=".6" stop-color="#D8DCEA"/>
      <stop offset="1" stop-color="#c7cad7"/>
    </radialGradient>
    <linearGradient id="b" x1="0" y1="0" x2="1" y2="1"><stop offset="0" stop-color="#5580b9"/><stop offset="1" stop-color="#37629b"/></linearGradient>
    <linearGradient id="d" x1="0" y1="0" x2="1" y2="1"><stop offset="0" stop-color="#223d61"/><stop offset="1" stop-color="#192c46"/></linearGradient>
    <linearGradient id="gold" x1="0" y1="0" x2="1" y2="1"><stop offset="0" stop-color="#E8CF8D"/><stop offset="1" stop-color="#A9843A"/></linearGradient>
    <linearGradient id="ink" x1="0" y1="0" x2="0" y2="1"><stop offset="0" stop-color="#232A4A"/><stop offset="1" stop-color="#232A4A"/></linearGradient>
    <radialGradient id="shadow"><stop offset="0" stop-color="#232A4A" stop-opacity=".3"/><stop offset="1" stop-color="#232A4A" stop-opacity="0"/></radialGradient>
  </defs>
  <rect width="800" height="800" fill="url(#bg)"/>
  <circle cx="650" cy="160" r="70" fill="#fff" opacity=".35"/><circle cx="150" cy="650" r="110" fill="#fff" opacity=".22"/>
  <ellipse cx="400" cy="640" rx="260" ry="34" fill="url(#shadow)"/>
  <g transform="translate(410 400) rotate(-6) scale(.92)"><g>
        <path d="M-70,-170 C-40,-150 40,-150 70,-170 L170,-120 L130,-30 L95,-50 L95,190 L-95,190 L-95,-50 L-130,-30 L-170,-120 Z" fill="url(#b)"/>
        <path d="M-70,-170 C-40,-140 40,-140 70,-170" fill="none" stroke="url(#d)" stroke-width="10" opacity=".5"/>
        <path d="M-95,170 L95,170" stroke="url(#d)" stroke-width="4" opacity=".3"/>
        <rect x="27" y="-90" width="46" height="24" rx="4" fill="#FFFDF8" opacity=".92"/><text x="50" y="-73" text-anchor="middle" font-family="Georgia, serif" font-size="14" font-weight="700" fill="url(#ink)">P</text>
      </g></g>
</svg>
