<svg xmlns="http://www.w3.org/2000/svg" viewBox="0 0 800 800" width="800" height="800" role="img" aria-label="Gentle Rice Water Foaming Cleanser">
  <defs>
    <radialGradient id="bg" cx="50%" cy="38%" r="75%">
      <stop offset="0" stop-color="#F2DCCD"/>
      <stop offset=".55" stop-color="#F2DCCD"/>
      <stop offset="1" stop-color="#E9B79A" stop-opacity="0.55"/>
    </radialGradient>
    <linearGradient id="body" x1="0" y1="0" x2="1" y2="1"><stop offset="0" stop-color="#E9B79A"/><stop offset="1" stop-color="#C98A6B"/></linearGradient>
    <linearGradient id="gold" x1="0" y1="0" x2="1" y2="1"><stop offset="0" stop-color="#E8CF8D"/><stop offset="1" stop-color="#A9843A"/></linearGradient>
    <linearGradient id="ink" x1="0" y1="0" x2="0" y2="1"><stop offset="0" stop-color="#8A4B32"/><stop offset="1" stop-color="#8A4B32"/></linearGradient>
    <filter id="soft" x="-50%" y="-50%" width="200%" height="200%"><feGaussianBlur stdDeviation="18"/></filter>
  </defs>
  <rect width="800" height="800" fill="url(#bg)"/>
  <circle cx="640" cy="170" r="70" fill="#fff" opacity=".35"/><circle cx="160" cy="640" r="110" fill="#fff" opacity=".22"/>
       <text x="60" y="730" font-family="Georgia, serif" font-size="22" font-style="italic" fill="#8A4B32" opacity=".7">150 ml</text>
  <ellipse cx="430" cy="660" rx="210" ry="26" fill="#8A4B32" opacity=".22" filter="url(#soft)"/>
  <g transform="translate(430 420) rotate(-8) scale(.95)"><path d="M-90,-200 L90,-200 L70,150 L-70,150 Z" fill="url(#body)"/>
        <rect x="-95" y="-215" width="190" height="22" rx="4" fill="url(#body)" opacity=".85"/>
        <rect x="-55" y="150" width="110" height="65" rx="10" fill="#FFFDF8"/><rect x="-70" y="-180" width="14" height="300" rx="7" fill="#fff" opacity=".28"/>
    <rect x="-70" y="-110" width="140" height="130" rx="10" fill="#FFFDF8" opacity=".95"/>
    <text x="0" y="-41" text-anchor="middle" font-family="Georgia, 'Times New Roman', serif" font-size="46" font-weight="700" fill="url(#ink)">KB</text>
    <text x="0" y="-15" text-anchor="middle" font-family="Helvetica, Arial, sans-serif" font-size="9.333333333333334" letter-spacing="1.5" fill="url(#ink)" opacity=".75">KŌMÉ BEAUTY</text>
    <line x1="-48" x2="48" y1="-92" y2="-92" stroke="url(#ink)" stroke-width="1" opacity=".3"/></g>
</svg>
