<svg xmlns="http://www.w3.org/2000/svg" viewBox="0 0 800 800" width="800" height="800" role="img" aria-label="Fresh Aqua Deodorant Body Spray">
  <defs>
    <radialGradient id="bg" cx="50%" cy="38%" r="75%">
      <stop offset="0" stop-color="#E8DABA"/>
      <stop offset=".55" stop-color="#E8DABA"/>
      <stop offset="1" stop-color="#D4AE5C" stop-opacity="0.55"/>
    </radialGradient>
    <linearGradient id="body" x1="0" y1="0" x2="1" y2="1"><stop offset="0" stop-color="#D4AE5C"/><stop offset="1" stop-color="#A9843A"/></linearGradient>
    <linearGradient id="gold" x1="0" y1="0" x2="1" y2="1"><stop offset="0" stop-color="#E8CF8D"/><stop offset="1" stop-color="#A9843A"/></linearGradient>
    <linearGradient id="ink" x1="0" y1="0" x2="0" y2="1"><stop offset="0" stop-color="#5E4517"/><stop offset="1" stop-color="#5E4517"/></linearGradient>
    <radialGradient id="shadow"><stop offset="0" stop-color="#5E4517" stop-opacity=".35"/><stop offset="1" stop-color="#5E4517" stop-opacity="0"/></radialGradient>
  </defs>
  <rect width="800" height="800" fill="url(#bg)"/>
  <circle cx="640" cy="170" r="70" fill="#fff" opacity=".35"/><circle cx="160" cy="640" r="110" fill="#fff" opacity=".22"/>
       <text x="60" y="730" font-family="Georgia, serif" font-size="22" font-style="italic" fill="#5E4517" opacity=".7">150 ml</text>
  <ellipse cx="430" cy="660" rx="240" ry="34" fill="url(#shadow)"/>
  <g transform="translate(430 420) rotate(-8) scale(.95)"><rect x="-55" y="-220" width="110" height="80" rx="20" fill="#2B2B2B"/>
        <rect x="-80" y="-145" width="160" height="25" rx="6" fill="#C9C9C9"/>
        <rect x="-80" y="-125" width="160" height="340" rx="20" fill="url(#body)"/><rect x="-60" y="-105" width="14" height="300" rx="7" fill="#fff" opacity=".28"/>
    <rect x="-65" y="-20" width="130" height="130" rx="10" fill="#FFFDF8" opacity=".95"/>
    <text x="0" y="49" text-anchor="middle" font-family="Georgia, 'Times New Roman', serif" font-size="43.333333333333336" font-weight="700" fill="url(#ink)">NM</text>
    <text x="0" y="75" text-anchor="middle" font-family="Helvetica, Arial, sans-serif" font-size="8.666666666666666" letter-spacing="1.5" fill="url(#ink)" opacity=".75">NORD MEN</text>
    <line x1="-43" x2="43" y1="-2" y2="-2" stroke="url(#ink)" stroke-width="1" opacity=".3"/></g>
</svg>
