<svg xmlns="http://www.w3.org/2000/svg" viewBox="0 0 800 800" width="800" height="800" role="img" aria-label="Men's Road Running Shoes">
  <defs>
    <radialGradient id="bg" cx="50%" cy="38%" r="75%">
      <stop offset="0" stop-color="#FFFFFF"/>
      <stop offset=".6" stop-color="#EEF2F6"/>
      <stop offset="1" stop-color="#D9E1EA"/>
    </radialGradient>
    <linearGradient id="b" x1="0" y1="0" x2="1" y2="1"><stop offset="0" stop-color="#3a3a3a"/><stop offset="1" stop-color="#1b1b1b"/></linearGradient>
    <linearGradient id="d" x1="0" y1="0" x2="1" y2="1"><stop offset="0" stop-color="#111111"/><stop offset="1" stop-color="#0c0c0c"/></linearGradient>
    <linearGradient id="gold" x1="0" y1="0" x2="1" y2="1"><stop offset="0" stop-color="#E8CF8D"/><stop offset="1" stop-color="#A9843A"/></linearGradient>
    <linearGradient id="ink" x1="0" y1="0" x2="0" y2="1"><stop offset="0" stop-color="#1E2A4A"/><stop offset="1" stop-color="#1E2A4A"/></linearGradient>
    <radialGradient id="shadow"><stop offset="0" stop-color="#1E2A4A" stop-opacity=".3"/><stop offset="1" stop-color="#1E2A4A" stop-opacity="0"/></radialGradient>
  </defs>
  <rect width="800" height="800" fill="url(#bg)"/>
  <circle cx="140" cy="150" r="5" fill="#1E2A4A" opacity=".2"/><circle cx="670" cy="620" r="7" fill="#1E2A4A" opacity=".15"/>
  <ellipse cx="400" cy="640" rx="260" ry="34" fill="url(#shadow)"/>
  <g transform="translate(400 395) scale(.95)"><g transform="translate(-15 10) scale(1.35)">
        <path d="M-200,40 C-200,-10 -170,-40 -120,-50 L-60,-60 C-30,-110 30,-130 70,-120 L110,-80 C150,-60 200,-40 225,0 C240,25 235,45 225,55 L-195,55 C-205,55 -205,45 -200,40Z" fill="url(#b)"/>
        <path d="M-205,50 L232,50 C238,70 228,85 210,85 L-185,85 C-205,85 -212,70 -205,50Z" fill="#FFFDF8" stroke="#00000022" stroke-width="2"/>
        <path d="M-205,72 L230,72" stroke="url(#d)" stroke-width="4" opacity=".35"/>
        <path d="M-120,-10 C-40,-30 60,-30 170,10" fill="none" stroke="url(#d)" stroke-width="16" stroke-linecap="round" opacity=".55"/>
        <path d="M-40,-75 L40,-95 M-30,-55 L50,-75 M-20,-35 L60,-55" stroke="#FFFDF8" stroke-width="6" stroke-linecap="round" opacity=".9"/>
        <path d="M70,-120 L110,-80" stroke="url(#d)" stroke-width="10" stroke-linecap="round" opacity=".5"/>
        <rect x="-175" y="-5" width="50" height="24" rx="4" fill="#FFFDF8" opacity=".92"/><text x="-150" y="12" text-anchor="middle" font-family="Georgia, serif" font-size="14" font-weight="700" fill="url(#ink)">N</text>
      </g></g>
</svg>
