<svg xmlns="http://www.w3.org/2000/svg" viewBox="0 0 600 600" width="600" height="600" role="img" aria-label="Snacks">
  <defs>
    <radialGradient id="bg" cx="50%" cy="38%" r="75%">
      <stop offset="0" stop-color="#FFFFFF"/>
      <stop offset=".55" stop-color="#FCEFE6"/>
      <stop offset="1" stop-color="#F5D6C0" stop-opacity="1"/>
    </radialGradient>
    <linearGradient id="body" x1="0" y1="0" x2="1" y2="1"><stop offset="0" stop-color="#E88B4F"/><stop offset="1" stop-color="#C0612A"/></linearGradient>
    <linearGradient id="gold" x1="0" y1="0" x2="1" y2="1"><stop offset="0" stop-color="#E8CF8D"/><stop offset="1" stop-color="#A9843A"/></linearGradient>
    <linearGradient id="ink" x1="0" y1="0" x2="0" y2="1"><stop offset="0" stop-color="#6E3311"/><stop offset="1" stop-color="#6E3311"/></linearGradient>
    <filter id="soft" x="-50%" y="-50%" width="200%" height="200%"><feGaussianBlur stdDeviation="18"/></filter>
  </defs>
  <rect width="600" height="600" fill="url(#bg)"/>
  <circle cx="300" cy="290" r="210" fill="#fff" opacity=".45"/>
  <ellipse cx="300" cy="500" rx="170" ry="20" fill="#6E3311" opacity=".2" filter="url(#soft)"/>
  <g transform="translate(300 290) scale(.72)"><rect x="-140" y="-120" width="280" height="70" rx="14" fill="url(#gold)"/>
        <rect x="-150" y="-55" width="300" height="230" rx="34" fill="url(#body)"/><rect x="-125" y="-35" width="14" height="180" rx="7" fill="#fff" opacity=".28"/>
    <rect x="-105" y="-15" width="210" height="130" rx="10" fill="#FFFDF8" opacity=".95"/>
    <text x="0" y="54" text-anchor="middle" font-family="Georgia, 'Times New Roman', serif" font-size="46" font-weight="700" fill="url(#ink)">S</text>
    <text x="0" y="80" text-anchor="middle" font-family="Helvetica, Arial, sans-serif" font-size="11" letter-spacing="1.5" fill="url(#ink)" opacity=".75">SNACKS</text>
    <line x1="-83" x2="83" y1="3" y2="3" stroke="url(#ink)" stroke-width="1" opacity=".3"/></g>
</svg>
